<svg width="139" height="67" viewBox="0 0 139 67" fill="none" xmlns="http://www.w3.org/2000/svg">
    <path d="M33.4998 0C14.9982 0 0 14.9986 0 33.5002C0 52.0018 14.9982 67 33.4998 67C52.0014 67 67 52.0018 67 33.5002C67 14.9986 52.0014 0 33.4998 0ZM21.6431 44.3997C21.6431 44.643 21.4441 44.842 21.2008 44.842H14.7929C14.5496 44.842 14.3506 44.643 14.3506 44.3997V33.4099C14.3506 33.1666 14.5496 32.9676 14.7929 32.9676H21.2008C21.4441 32.9676 21.6431 33.1666 21.6431 33.4099V44.3997ZM35.0213 52.0943C34.9498 52.5009 34.7243 52.8551 34.3863 53.0917C34.0479 53.3284 33.638 53.4194 33.2315 53.3479C32.8253 53.2764 32.4711 53.0508 32.2341 52.7124C32.0081 52.3896 31.9149 52.0007 31.9698 51.6122C31.972 51.5941 31.975 51.5761 31.9783 51.558C32.0498 51.1515 32.2754 50.7973 32.6134 50.5606C32.8762 50.3767 33.1821 50.2809 33.4965 50.2809C33.5864 50.2809 33.6775 50.2886 33.7678 50.3045C34.1743 50.3763 34.5285 50.6019 34.7652 50.9399C34.9078 51.1434 34.9978 51.373 35.0306 51.6122C35.0527 51.7703 35.0497 51.9325 35.0213 52.0943ZM39.0976 46.2282C39.0976 48.5356 37.6833 50.5282 35.6789 51.3818C35.6188 51.087 35.4983 50.805 35.3203 50.551C34.9797 50.0645 34.4703 49.7402 33.8854 49.6369C33.3008 49.5341 32.7107 49.665 32.2245 50.0055C31.7546 50.3347 31.4354 50.8223 31.3218 51.3826C29.3167 50.5293 27.9017 48.536 27.9017 46.2282V44.9028H34.4666C34.6922 44.9028 34.8769 44.7185 34.8769 44.4929V43.3087C34.8769 43.0831 34.6922 42.8988 34.4666 42.8988H27.9017V41.2719H34.4666C34.6922 41.2719 34.8769 41.0872 34.8769 40.862V39.6777C34.8769 39.4521 34.6922 39.2675 34.4666 39.2675H27.9017V37.6409H34.4666C34.6922 37.6409 34.8769 37.4562 34.8769 37.2307V36.0464C34.8769 35.8208 34.6922 35.6365 34.4666 35.6365H27.9017V34.0096H34.4666C34.6922 34.0096 34.8769 33.8253 34.8769 33.5997V32.4154C34.8769 32.1899 34.6922 32.0052 34.4666 32.0052H27.9249C28.1822 29.1608 30.5909 26.9128 33.4998 26.9128C35.039 26.9128 36.4386 27.5423 37.4533 28.5571C38.468 29.5718 39.0976 30.9709 39.0976 32.5105V46.2282ZM42.0979 17.6487C40.9361 16.4866 39.5834 15.5747 38.0773 14.9374C36.5185 14.2783 34.8621 13.944 33.1544 13.944C31.4468 13.944 29.79 14.2783 28.2312 14.9374C26.7252 15.5747 25.3725 16.4866 24.2107 17.6487C23.0485 18.8105 22.1363 20.1636 21.4993 21.6693C21.0895 22.6383 20.8053 23.6449 20.649 24.6784H21.4566V31.7103H17.3056V24.6784H18.377C18.5481 23.3419 18.8993 22.0412 19.4275 20.7928C20.1776 19.0187 21.2516 17.4257 22.6195 16.0575C23.9877 14.6897 25.5807 13.6156 27.3547 12.8655C29.1921 12.0882 31.1434 11.6942 33.1544 11.6942C35.1655 11.6942 37.116 12.0882 38.9534 12.8655C40.7278 13.6156 42.3212 14.6897 43.6887 16.0575C45.0565 17.4257 46.1306 19.0187 46.8814 20.7928C47.4092 22.0412 47.7605 23.3419 47.9311 24.6784H49.003V31.7103H44.8523V24.6784H45.6595C45.5032 23.6449 45.2191 22.6383 44.8092 21.6693C44.1723 20.1636 43.2596 18.8105 42.0979 17.6487ZM52.129 44.3997C52.129 44.643 51.9299 44.842 51.6867 44.842H45.2784C45.0351 44.842 44.8361 44.643 44.8361 44.3997V33.4099C44.8361 33.1666 45.0351 32.9676 45.2784 32.9676H51.6867C51.9299 32.9676 52.129 33.1666 52.129 33.4099V44.3997Z"
          fill="white"/>
    <path d="M75 21.1572H76.0981L78.2095 26.0412H78.2277L80.3602 21.1572H81.4341V27.385H80.6939V22.1613H80.6757L78.44 27.3881H77.991L75.7584 22.1613H75.7402V27.385H75V21.1572Z"
          fill="white"/>
    <path d="M84.4487 24.7034L82.125 21.1572H83.0654L84.8157 23.9723L86.6207 21.1572H87.5095L85.1858 24.7034V27.385H84.4456V24.7034H84.4487Z"
          fill="white"/>
    <path d="M93.546 27.5463C93.0697 27.5463 92.6359 27.4644 92.2385 27.3006C91.8411 27.1368 91.4984 26.9093 91.2102 26.6181C90.922 26.3268 90.6945 25.981 90.5337 25.5806C90.3729 25.1802 90.291 24.7434 90.291 24.2732C90.291 23.803 90.3729 23.3692 90.5337 22.9657C90.6945 22.5653 90.922 22.2195 91.2102 21.9283C91.4984 21.637 91.8442 21.4095 92.2385 21.2457C92.6329 21.0819 93.0697 21 93.546 21C94.0222 21 94.456 21.0819 94.8534 21.2457C95.2508 21.4095 95.5936 21.637 95.8818 21.9283C96.17 22.2195 96.3975 22.5653 96.5583 22.9657C96.719 23.3661 96.8009 23.803 96.8009 24.2732C96.8009 24.7434 96.719 25.1771 96.5583 25.5806C96.3975 25.9841 96.17 26.3299 95.8818 26.6181C95.5936 26.9062 95.2478 27.1368 94.8534 27.3006C94.4591 27.4644 94.0222 27.5463 93.546 27.5463ZM93.546 26.8607C93.91 26.8607 94.2437 26.794 94.544 26.6575C94.8474 26.524 95.1052 26.339 95.3236 26.1024C95.539 25.8688 95.7089 25.5927 95.8302 25.2803C95.9515 24.9678 96.0092 24.6311 96.0092 24.2732C96.0092 23.9152 95.9485 23.5785 95.8302 23.266C95.7089 22.9536 95.542 22.6775 95.3236 22.444C95.1052 22.2104 94.8474 22.0253 94.544 21.8888C94.2406 21.7553 93.91 21.6856 93.546 21.6856C93.182 21.6856 92.8483 21.7523 92.5479 21.8888C92.2446 22.0253 91.9867 22.2073 91.7683 22.444C91.5499 22.6806 91.3831 22.9536 91.2617 23.266C91.1404 23.5815 91.0828 23.9152 91.0828 24.2732C91.0828 24.6311 91.1434 24.9678 91.2617 25.2803C91.3831 25.5927 91.5499 25.8688 91.7683 26.1024C91.9867 26.3359 92.2446 26.521 92.5479 26.6575C92.8513 26.794 93.182 26.8607 93.546 26.8607Z"
          fill="white"/>
    <path d="M97.2656 21.1572H98.0847L99.5013 26.3294H99.5195L101.048 21.1572H101.877L103.399 26.3294H103.418L104.859 21.1572H105.632L103.803 27.385H103.002L101.461 22.1067H101.443L99.8957 27.385H99.0857L97.2656 21.1572Z"
          fill="white"/>
    <path d="M106.463 21.1572H107.394L111.001 26.3294H111.019V21.1572H111.759V27.385H110.828L107.221 22.2129H107.203V27.385H106.463V21.1572Z"
          fill="white"/>
    <path d="M75 32.2788H77.6543L82.7506 44.064H82.7931L87.9319 32.2788H90.5225V47.3129H88.7388V34.6996H88.6963L83.3027 47.3129H82.2198L76.8262 34.6996H76.7837V47.3129H75V32.2788Z"
          fill="white"/>
    <path d="M105.535 41.5796C105.535 42.4016 105.431 43.1782 105.225 43.9154C105.019 44.6525 104.694 45.2986 104.248 45.8598C103.802 46.418 103.217 46.8639 102.495 47.1976C101.773 47.5313 100.896 47.6951 99.8619 47.6951C98.8275 47.6951 97.9508 47.5283 97.2288 47.1976C96.5068 46.867 95.9214 46.418 95.4785 45.8598C95.0326 45.3017 94.708 44.6525 94.5017 43.9154C94.2954 43.1782 94.1953 42.4016 94.1953 41.5796V32.2788H95.979V41.3247C95.979 41.9345 96.0427 42.5199 96.1701 43.0872C96.2975 43.6545 96.5099 44.155 96.8072 44.5949C97.1045 45.0347 97.5018 45.3836 97.9963 45.6445C98.4908 45.9053 99.1157 46.0358 99.8649 46.0358C100.614 46.0358 101.239 45.9053 101.734 45.6445C102.228 45.3836 102.625 45.0317 102.923 44.5949C103.22 44.155 103.432 43.6545 103.56 43.0872C103.687 42.5199 103.751 41.9345 103.751 41.3247V32.2788H105.535V41.5796Z"
          fill="white"/>
    <path d="M116.341 34.9333C116.044 34.451 115.646 34.1022 115.152 33.8807C114.657 33.6623 114.139 33.5531 113.602 33.5531C113.204 33.5531 112.816 33.6016 112.434 33.7017C112.052 33.8018 111.709 33.9505 111.403 34.1477C111.099 34.3448 110.853 34.6088 110.671 34.9333C110.486 35.2579 110.395 35.6401 110.395 36.08C110.395 36.4198 110.447 36.7201 110.553 36.984C110.659 37.2479 110.832 37.4815 111.072 37.6938C111.312 37.9062 111.639 38.1034 112.049 38.2884C112.458 38.4735 112.962 38.6555 113.556 38.8405C114.136 39.0256 114.7 39.2227 115.246 39.4351C115.792 39.6474 116.271 39.9174 116.69 40.242C117.109 40.5666 117.439 40.9761 117.688 41.4615C117.937 41.9499 118.061 42.5626 118.061 43.2967C118.061 44.0308 117.912 44.6982 117.615 45.2503C117.318 45.8024 116.927 46.2605 116.438 46.6184C115.95 46.9794 115.386 47.2494 114.752 47.4253C114.114 47.6013 113.456 47.6923 112.777 47.6923C112.337 47.6923 111.9 47.6529 111.46 47.577C111.02 47.4981 110.602 47.3798 110.195 47.216C109.792 47.0522 109.413 46.8399 109.058 46.579C108.703 46.3181 108.399 45.9966 108.145 45.6143L109.673 44.3615C109.998 44.9136 110.453 45.3322 111.032 45.6143C111.612 45.8965 112.228 46.039 112.88 46.039C113.262 46.039 113.647 45.9814 114.036 45.8692C114.424 45.7569 114.776 45.5901 115.085 45.3686C115.398 45.1502 115.652 44.8772 115.85 44.5526C116.047 44.228 116.147 43.8519 116.147 43.4272C116.147 42.96 116.068 42.5808 115.913 42.2896C115.759 41.9984 115.516 41.7466 115.191 41.5343C114.867 41.3219 114.454 41.1308 113.96 40.9609C113.465 40.7911 112.883 40.5939 112.219 40.3664C111.682 40.1965 111.184 40.0023 110.732 39.7809C110.28 39.5625 109.886 39.2925 109.552 38.974C109.218 38.6555 108.958 38.2732 108.766 37.8273C108.575 37.3814 108.478 36.8475 108.478 36.2226C108.478 35.5006 108.621 34.8696 108.903 34.3327C109.185 33.7958 109.567 33.3438 110.05 32.9828C110.532 32.6218 111.075 32.3488 111.685 32.1637C112.294 31.9787 112.931 31.8877 113.596 31.8877C114.445 31.8877 115.219 32.0181 115.922 32.279C116.623 32.5399 117.251 32.998 117.8 33.6502L116.335 34.9242L116.341 34.9333Z"
          fill="white"/>
    <path d="M121.016 32.2788H122.799V47.3129H121.016V32.2788Z" fill="white"/>
    <path d="M137.067 35.3794C136.615 34.7697 136.054 34.3147 135.389 34.0083C134.725 33.7049 134.03 33.5533 133.308 33.5533C132.474 33.5533 131.704 33.7231 131.003 34.0629C130.302 34.4027 129.695 34.8577 129.189 35.431C128.679 36.0043 128.282 36.6687 128 37.4271C127.718 38.1854 127.575 38.9742 127.575 39.7932C127.575 40.6699 127.718 41.4889 128 42.2443C128.282 43.0027 128.676 43.6609 129.177 44.2191C129.68 44.7773 130.281 45.2202 130.982 45.5478C131.682 45.8724 132.456 46.0362 133.308 46.0362C134.227 46.0362 135.05 45.8572 135.772 45.4932C136.493 45.1322 137.124 44.6135 137.661 43.9339L138.999 45.0594C138.32 45.9664 137.504 46.6307 136.548 47.0554C135.593 47.4801 134.513 47.6925 133.311 47.6925C132.234 47.6925 131.23 47.4953 130.296 47.0979C129.362 46.7005 128.552 46.1514 127.866 45.4537C127.181 44.753 126.641 43.9218 126.252 42.9602C125.864 41.9986 125.67 40.9429 125.67 39.7962C125.67 38.6496 125.858 37.6576 126.231 36.696C126.607 35.7344 127.135 34.8971 127.812 34.1903C128.491 33.4835 129.298 32.9223 130.232 32.5128C131.167 32.1033 132.192 31.897 133.311 31.897C134.331 31.897 135.31 32.082 136.254 32.4491C137.194 32.8161 137.983 33.4198 138.62 34.254L137.07 35.3794H137.067Z"
          fill="white"/>
</svg>
