<svg width="67" height="100" viewBox="0 0 67 100" fill="none" xmlns="http://www.w3.org/2000/svg">
    <g clip-path="url(#clip0_22_3879)">
        <path d="M33.4993 0C14.998 0 0 14.9983 0 33.4997C0 52.001 14.998 66.999 33.4993 66.999C52.0007 66.999 66.999 52.001 66.999 33.4997C66.999 14.9983 52.0007 0 33.4993 0ZM21.6428 44.399C21.6428 44.6423 21.4437 44.8413 21.2005 44.8413H14.7927C14.5494 44.8413 14.3504 44.6423 14.3504 44.399V33.4094C14.3504 33.1661 14.5494 32.9671 14.7927 32.9671H21.2005C21.4437 32.9671 21.6428 33.1661 21.6428 33.4094V44.399ZM35.0208 52.0935C34.9493 52.5001 34.7237 52.8543 34.3858 53.0909C34.0474 53.3276 33.6375 53.4186 33.231 53.3471C32.8248 53.2756 32.4706 53.05 32.2336 52.7117C32.0077 52.3888 31.9144 51.9999 31.9693 51.6114C31.9715 51.5934 31.9745 51.5753 31.9778 51.5573C32.0493 51.1507 32.2749 50.7965 32.6129 50.5599C32.8757 50.3759 33.1816 50.2801 33.496 50.2801C33.5859 50.2801 33.677 50.2879 33.7673 50.3037C34.1738 50.3756 34.528 50.6012 34.7647 50.9391C34.9073 51.1426 34.9972 51.3722 35.03 51.6114C35.0522 51.7696 35.0492 51.9317 35.0208 52.0935V52.0935ZM39.097 46.2276C39.097 48.5349 37.6827 50.5274 35.6784 51.3811C35.6183 51.0862 35.4978 50.8042 35.3197 50.5503C34.9792 50.0638 34.4698 49.7394 33.8849 49.6362C33.3003 49.5334 32.7102 49.6642 32.224 50.0048C31.7541 50.3339 31.4349 50.8216 31.3214 51.3818C29.3163 50.5285 27.9013 48.5352 27.9013 46.2276V44.9021H34.4661C34.6917 44.9021 34.8763 44.7178 34.8763 44.4923V43.308C34.8763 43.0824 34.6917 42.8982 34.4661 42.8982H27.9013V41.2712H34.4661C34.6917 41.2712 34.8763 41.0866 34.8763 40.8614V39.6771C34.8763 39.4515 34.6917 39.2669 34.4661 39.2669H27.9013V37.6403H34.4661C34.6917 37.6403 34.8763 37.4557 34.8763 37.2301V36.0458C34.8763 35.8203 34.6917 35.636 34.4661 35.636H27.9013V34.0091H34.4661C34.6917 34.0091 34.8763 33.8248 34.8763 33.5992V32.4149C34.8763 32.1894 34.6917 32.0047 34.4661 32.0047H27.9245C28.1818 29.1604 30.5905 26.9124 33.4993 26.9124C35.0385 26.9124 36.438 27.5419 37.4527 28.5566C38.4674 29.5713 39.097 30.9705 39.097 32.51V46.2276ZM42.0972 17.6484C40.9355 16.4863 39.5828 15.5744 38.0767 14.9372C36.518 14.2781 34.8616 13.9438 33.154 13.9438C31.4463 13.9438 29.7895 14.2781 28.2308 14.9372C26.7248 15.5744 25.3721 16.4863 24.2103 17.6484C23.0482 18.8102 22.1359 20.1633 21.499 21.6689C21.0892 22.6379 20.805 23.6445 20.6487 24.678H21.4563V31.7098H17.3053V24.678H18.3768C18.5478 23.3416 18.899 22.0408 19.4272 20.7924C20.1773 19.0185 21.2513 17.4255 22.6191 16.0573C23.9873 14.6895 25.5803 13.6154 27.3543 12.8654C29.1917 12.088 31.143 11.694 33.154 11.694C35.1649 11.694 37.1155 12.088 38.9529 12.8654C40.7272 13.6154 42.3206 14.6895 43.688 16.0573C45.0558 17.4255 46.1299 19.0185 46.8807 20.7924C47.4085 22.0408 47.7598 23.3416 47.9304 24.678H49.0022V31.7098H44.8516V24.678H45.6588C45.5026 23.6445 45.2184 22.6379 44.8085 21.6689C44.1716 20.1633 43.259 18.8102 42.0972 17.6484V17.6484ZM52.1282 44.399C52.1282 44.6423 51.9292 44.8413 51.6859 44.8413H45.2777C45.0345 44.8413 44.8354 44.6423 44.8354 44.399V33.4094C44.8354 33.1661 45.0345 32.9671 45.2777 32.9671H51.6859C51.9292 32.9671 52.1282 33.1661 52.1282 33.4094V44.399Z"
              fill="white"/>
    </g>
    <path d="M14.75 73.1558H15.8481L17.9594 78.0396H17.9776L20.1101 73.1558H21.184V79.3835H20.4438V74.1598H20.4256L18.19 79.3865H17.741L15.5084 74.1598H15.4902V79.3835H14.75V73.1558Z"
          fill="white"/>
    <path d="M24.1986 76.7019L21.875 73.1558H22.8154L24.5657 75.9708L26.3706 73.1558H27.2594L24.9358 76.7019V79.3835H24.1956V76.7019H24.1986Z"
          fill="white"/>
    <path d="M33.2959 79.5452C32.8197 79.5452 32.3859 79.4633 31.9885 79.2995C31.5911 79.1357 31.2483 78.9082 30.9602 78.617C30.672 78.3258 30.4445 77.98 30.2837 77.5796C30.1229 77.1791 30.041 76.7423 30.041 76.2721C30.041 75.8019 30.1229 75.3682 30.2837 74.9647C30.4445 74.5643 30.672 74.2185 30.9602 73.9273C31.2483 73.6361 31.5942 73.4085 31.9885 73.2447C32.3829 73.0809 32.8197 72.999 33.2959 72.999C33.7722 72.999 34.206 73.0809 34.6034 73.2447C35.0007 73.4085 35.3435 73.6361 35.6317 73.9273C35.9199 74.2185 36.1474 74.5643 36.3082 74.9647C36.4689 75.3651 36.5508 75.8019 36.5508 76.2721C36.5508 76.7423 36.4689 77.1761 36.3082 77.5796C36.1474 77.983 35.9199 78.3288 35.6317 78.617C35.3435 78.9052 34.9977 79.1357 34.6034 79.2995C34.209 79.4633 33.7722 79.5452 33.2959 79.5452V79.5452ZM33.2959 78.8597C33.6599 78.8597 33.9936 78.7929 34.2939 78.6564C34.5973 78.523 34.8551 78.3379 35.0735 78.1013C35.2889 77.8677 35.4588 77.5917 35.5801 77.2792C35.7015 76.9668 35.7591 76.6301 35.7591 76.2721C35.7591 75.9142 35.6984 75.5775 35.5801 75.265C35.4588 74.9526 35.2919 74.6765 35.0735 74.443C34.8551 74.2094 34.5973 74.0243 34.2939 73.8878C33.9906 73.7544 33.6599 73.6846 33.2959 73.6846C32.9319 73.6846 32.5982 73.7513 32.2979 73.8878C31.9946 74.0243 31.7367 74.2063 31.5183 74.443C31.2999 74.6796 31.1331 74.9526 31.0117 75.265C30.8904 75.5805 30.8328 75.9142 30.8328 76.2721C30.8328 76.6301 30.8934 76.9668 31.0117 77.2792C31.1331 77.5917 31.2999 77.8677 31.5183 78.1013C31.7367 78.3349 31.9946 78.5199 32.2979 78.6564C32.6013 78.7929 32.9319 78.8597 33.2959 78.8597Z"
          fill="white"/>
    <path d="M37.0137 73.1558H37.8327L39.2493 78.3278H39.2675L40.7964 73.1558H41.6245L43.1473 78.3278H43.1655L44.6064 73.1558H45.38L43.5508 79.3835H42.75L41.209 74.1052H41.1908L39.6437 79.3835H38.8338L37.0137 73.1558Z"
          fill="white"/>
    <path d="M46.2109 73.1558H47.1422L50.749 78.3278H50.7672V73.1558H51.5074V79.3835H50.5761L46.9693 74.2114H46.9511V79.3835H46.2109V73.1558V73.1558Z"
          fill="white"/>
    <path d="M3.00195 84.2773H5.65624L10.7525 96.0624H10.7949L15.9336 84.2773H18.5242V99.3112H16.7405V86.698H16.6981L11.3046 99.3112H10.2216L4.8281 86.698H4.78563V99.3112H3.00195V84.2773Z"
          fill="white"/>
    <path d="M33.5364 93.578C33.5364 94.4 33.4332 95.1766 33.227 95.9137C33.0207 96.6509 32.6961 97.297 32.2502 97.8582C31.8043 98.4163 31.2188 98.8623 30.4968 99.1959C29.7749 99.5296 28.8982 99.6934 27.8638 99.6934C26.8294 99.6934 25.9527 99.5266 25.2307 99.1959C24.5088 98.8653 23.9233 98.4163 23.4804 97.8582C23.0345 97.3 22.7099 96.6509 22.5036 95.9137C22.2974 95.1766 22.1973 94.4 22.1973 93.578V84.2773H23.9809V93.3231C23.9809 93.9329 24.0446 94.5183 24.1721 95.0856C24.2995 95.6528 24.5118 96.1534 24.8091 96.5932C25.1064 97.0331 25.5037 97.3819 25.9982 97.6428C26.4927 97.9037 27.1175 98.0341 27.8668 98.0341C28.6161 98.0341 29.241 97.9037 29.7354 97.6428C30.2299 97.3819 30.6273 97.03 30.9246 96.5932C31.2218 96.1534 31.4342 95.6528 31.5616 95.0856C31.689 94.5183 31.7527 93.9329 31.7527 93.3231V84.2773H33.5364V93.578V93.578Z"
          fill="white"/>
    <path d="M44.3429 86.9318C44.0456 86.4495 43.6482 86.1007 43.1538 85.8792C42.6593 85.6608 42.1406 85.5516 41.6037 85.5516C41.2063 85.5516 40.818 85.6001 40.4358 85.7002C40.0536 85.8003 39.7108 85.949 39.4044 86.1462C39.1011 86.3433 38.8554 86.6073 38.6734 86.9318C38.4883 87.2564 38.3973 87.6386 38.3973 88.0785C38.3973 88.4182 38.4489 88.7185 38.5551 88.9825C38.6612 89.2464 38.8341 89.4799 39.0738 89.6923C39.3134 89.9046 39.641 90.1018 40.0506 90.2868C40.4601 90.4719 40.9636 90.6539 41.5582 90.8389C42.1376 91.024 42.7018 91.2212 43.2478 91.4335C43.7939 91.6458 44.2731 91.9158 44.6918 92.2404C45.1104 92.565 45.441 92.9745 45.6898 93.4599C45.9385 93.9482 46.0629 94.561 46.0629 95.2951C46.0629 96.0292 45.9143 96.6966 45.617 97.2487C45.3197 97.8007 44.9284 98.2588 44.44 98.6167C43.9516 98.9777 43.3874 99.2477 42.7534 99.4236C42.1163 99.5996 41.4581 99.6906 40.7786 99.6906C40.3387 99.6906 39.9019 99.6512 39.4621 99.5753C39.0222 99.4965 38.6036 99.3781 38.1971 99.2143C37.7937 99.0505 37.4145 98.8382 37.0596 98.5773C36.7046 98.3164 36.4013 97.9949 36.1465 97.6127L37.6754 96.3598C37.9999 96.9119 38.455 97.3306 39.0343 97.6127C39.6137 97.8948 40.2295 98.0374 40.8817 98.0374C41.2639 98.0374 41.6492 97.9797 42.0375 97.8675C42.4258 97.7552 42.7776 97.5884 43.0871 97.367C43.3995 97.1485 43.6543 96.8755 43.8515 96.551C44.0487 96.2264 44.1488 95.8502 44.1488 95.4255C44.1488 94.9584 44.0699 94.5792 43.9152 94.288C43.7605 93.9968 43.5178 93.745 43.1932 93.5327C42.8686 93.3203 42.4561 93.1292 41.9616 92.9593C41.4672 92.7895 40.8848 92.5923 40.2204 92.3648C39.6835 92.1949 39.186 92.0008 38.734 91.7793C38.282 91.5609 37.8877 91.2909 37.554 90.9724C37.2203 90.6539 36.9595 90.2717 36.7683 89.8258C36.5772 89.3798 36.4802 88.8459 36.4802 88.2211C36.4802 87.4991 36.6227 86.8681 36.9049 86.3312C37.187 85.7943 37.5692 85.3423 38.0515 84.9813C38.5338 84.6203 39.0768 84.3473 39.6865 84.1623C40.2963 83.9772 40.9333 83.8862 41.5976 83.8862C42.447 83.8862 43.2205 84.0167 43.9243 84.2775C44.625 84.5384 45.253 84.9965 45.802 85.6487L44.3368 86.9227L44.3429 86.9318Z"
          fill="white"/>
    <path d="M49.0156 84.2773H50.7993V99.3112H49.0156V84.2773Z" fill="white"/>
    <path d="M65.0667 87.3779C64.6147 86.7682 64.0535 86.3132 63.3892 86.0068C62.7248 85.7035 62.0302 85.5518 61.3082 85.5518C60.474 85.5518 59.7035 85.7217 59.0028 86.0614C58.302 86.4012 57.6953 86.8562 57.1887 87.4295C56.6791 88.0028 56.2817 88.6672 55.9996 89.4255C55.7175 90.1839 55.5749 90.9726 55.5749 91.7916C55.5749 92.6683 55.7175 93.4873 55.9996 94.2427C56.2817 95.001 56.6761 95.6593 57.1766 96.2175C57.6802 96.7756 58.2808 97.2185 58.9815 97.5461C59.6823 97.8707 60.4558 98.0345 61.3082 98.0345C62.2273 98.0345 63.0494 97.8555 63.7714 97.4915C64.4933 97.1305 65.1243 96.6118 65.6612 95.9323L66.999 97.0577C66.3195 97.9647 65.5035 98.6291 64.5479 99.0537C63.5924 99.4784 62.5125 99.6908 61.3112 99.6908C60.2343 99.6908 59.2303 99.4936 58.296 99.0962C57.3617 98.6988 56.5517 98.1498 55.8662 97.4521C55.1806 96.7513 54.6406 95.9202 54.2524 94.9586C53.8641 93.997 53.6699 92.9413 53.6699 91.7947C53.6699 90.648 53.858 89.6561 54.2311 88.6945C54.6073 87.7328 55.1351 86.8956 55.8116 86.1888C56.4911 85.482 57.298 84.9208 58.2323 84.5113C59.1666 84.1018 60.1919 83.8955 61.3112 83.8955C62.3305 83.8955 63.3103 84.0806 64.2537 84.4476C65.1941 84.8146 65.9828 85.4183 66.6198 86.2525L65.0697 87.3779H65.0667Z"
          fill="white"/>
    <defs>
        <clipPath id="clip0_22_3879">
            <rect width="66.999" height="66.999" fill="white"/>
        </clipPath>
    </defs>
</svg>
