<svg display="none" xmlns="http://www.w3.org/2000/svg">
    <symbol id="menu">
        <path d="M7,0H4A4,4,0,0,0,0,4V7a4,4,0,0,0,4,4H7a4,4,0,0,0,4-4V4A4,4,0,0,0,7,0ZM9,7A2,2,0,0,1,7,9H4A2,2,0,0,1,2,7V4A2,2,0,0,1,4,2H7A2,2,0,0,1,9,4Z"/>
        <path d="M20,0H17a4,4,0,0,0-4,4V7a4,4,0,0,0,4,4h3a4,4,0,0,0,4-4V4A4,4,0,0,0,20,0Zm2,7a2,2,0,0,1-2,2H17a2,2,0,0,1-2-2V4a2,2,0,0,1,2-2h3a2,2,0,0,1,2,2Z"/>
        <path d="M7,13H4a4,4,0,0,0-4,4v3a4,4,0,0,0,4,4H7a4,4,0,0,0,4-4V17A4,4,0,0,0,7,13Zm2,7a2,2,0,0,1-2,2H4a2,2,0,0,1-2-2V17a2,2,0,0,1,2-2H7a2,2,0,0,1,2,2Z"/>
        <path d="M20,13H17a4,4,0,0,0-4,4v3a4,4,0,0,0,4,4h3a4,4,0,0,0,4-4V17A4,4,0,0,0,20,13Zm2,7a2,2,0,0,1-2,2H17a2,2,0,0,1-2-2V17a2,2,0,0,1,2-2h3a2,2,0,0,1,2,2Z"/>
    </symbol>
    <symbol id="login">
        <path d="M19,8.424V7A7,7,0,0,0,5,7V8.424A5,5,0,0,0,2,13v6a5.006,5.006,0,0,0,5,5H17a5.006,5.006,0,0,0,5-5V13A5,5,0,0,0,19,8.424ZM7,7A5,5,0,0,1,17,7V8H7ZM20,19a3,3,0,0,1-3,3H7a3,3,0,0,1-3-3V13a3,3,0,0,1,3-3H17a3,3,0,0,1,3,3Z"/>
        <path d="M12,14a1,1,0,0,0-1,1v2a1,1,0,0,0,2,0V15A1,1,0,0,0,12,14Z"/>
    </symbol>
    <symbol id="manage">
        <path d="M9.878,18.122a3,3,0,0,0,4.244,0l3.211-3.211A1,1,0,0,0,15.919,13.5l-2.926,2.927L13,1a1,1,0,0,0-1-1h0a1,1,0,0,0-1,1l-.009,15.408L8.081,13.5a1,1,0,0,0-1.414,1.415Z"/>
        <path d="M23,16h0a1,1,0,0,0-1,1v4a1,1,0,0,1-1,1H3a1,1,0,0,1-1-1V17a1,1,0,0,0-1-1H1a1,1,0,0,0-1,1v4a3,3,0,0,0,3,3H21a3,3,0,0,0,3-3V17A1,1,0,0,0,23,16Z"/>
    </symbol>
    <symbol id="home">
        <g id="_01_align_center" data-name="01 align center">
            <path d="M13.338.833a2,2,0,0,0-2.676,0L0,10.429v10.4a3.2,3.2,0,0,0,3.2,3.2H20.8a3.2,3.2,0,0,0,3.2-3.2v-10.4ZM15,22.026H9V17a3,3,0,0,1,6,0Zm7-1.2a1.2,1.2,0,0,1-1.2,1.2H17V17A5,5,0,0,0,7,17v5.026H3.2a1.2,1.2,0,0,1-1.2-1.2V11.319l10-9,10,9Z"/>
        </g>
    </symbol>
    <symbol id="music">
        <path d="M12,0A12,12,0,1,0,24,12,12.013,12.013,0,0,0,12,0Zm0,16a4,4,0,1,1,4-4A4,4,0,0,1,12,16Zm1-4a1,1,0,1,1-1-1A1,1,0,0,1,13,12Z"/>
    </symbol>
    <symbol id="dots">
        <circle cx="12" cy="2" r="2"/>
        <circle cx="12" cy="12" r="2"/>
        <circle cx="12" cy="22" r="2"/>
    </symbol>
    <symbol id="play">
        <g id="Capa_13" data-name="Capa 13">
            <path d="M19.948,23H4.052A4.03,4.03,0,0,1,.6,21.088a3.947,3.947,0,0,1-.182-3.86L8.38,3.212a4.068,4.068,0,0,1,7.253.026l7.922,13.941a3.967,3.967,0,0,1-.156,3.909A4.03,4.03,0,0,1,19.948,23Z"/>
        </g>
    </symbol>
    <symbol id="pause">
        <path d="M6.5,0A3.5,3.5,0,0,0,3,3.5v17a3.5,3.5,0,0,0,7,0V3.5A3.5,3.5,0,0,0,6.5,0Z"/>
        <path d="M17.5,0A3.5,3.5,0,0,0,14,3.5v17a3.5,3.5,0,0,0,7,0V3.5A3.5,3.5,0,0,0,17.5,0Z"/>
    </symbol>
    <symbol id="ava">
        <g>
            <path d="M61.4,0c17,0,32.3,6.9,43.4,18c11.1,11.1,18,26.5,18,43.4c0,17-6.9,32.3-18,43.4c-11.1,11.1-26.5,18-43.4,18 s-32.3-6.9-43.4-18C6.9,93.8,0,78.4,0,61.4c0-17,6.9-32.3,18-43.4C29.1,6.9,44.5,0,61.4,0L61.4,0z M41.3,54.3c-1.1,0-2,0.3-2.5,0.7 c-0.3,0.2-0.6,0.5-0.7,0.8c-0.2,0.4-0.3,0.8-0.2,1.4c0,1.5,0.8,3.5,2.4,5.8l0,0l0,0l5,8c2,3.2,4.1,6.5,6.8,8.9 c2.5,2.3,5.6,3.9,9.6,3.9c4.4,0,7.6-1.6,10.2-4.1c2.7-2.5,4.9-6,7-9.5l5.7-9.3c1.1-2.4,1.4-4,1.2-5c-0.1-0.6-0.8-0.8-1.8-0.9 c-0.2,0-0.5,0-0.7,0c-0.3,0-0.5,0-0.8,0c-0.2,0-0.3,0-0.4,0c-0.5,0-1,0-1.6-0.1l1.9-8.6c-14.4,2.3-25.2-8.4-40.4-2.1L43,54.4 C42.4,54.4,41.8,54.4,41.3,54.3L41.3,54.3L41.3,54.3L41.3,54.3z M18.8,95.7c7.1-2.5,19.6-3.8,25.4-7.7c1-1.3,2.1-2.9,3.1-4.3 c0.6-0.9,1.1-1.7,1.6-2.3c0.1-0.1,0.2-0.2,0.3-0.3c-2.4-2.5-4.4-5.5-6.3-8.5l-5-8C36,61.8,35,59.3,35,57.3c0-1,0.1-1.9,0.5-2.6 c0.4-0.8,1-1.5,1.7-2c0.4-0.2,0.8-0.5,1.2-0.6c-0.3-4.3-0.4-9.8-0.2-14.4c0.1-1.1,0.3-2.2,0.6-3.3c1.3-4.6,4.5-8.3,8.5-10.8 c1.4-0.9,2.9-1.6,4.6-2.2c2.9-1.1,1.5-5.5,4.7-5.6c7.5-0.2,19.8,6.2,24.6,11.4c2.8,3,4.6,7,4.9,12.3l-0.3,13.1l0,0 c1.4,0.4,2.3,1.3,2.7,2.7c0.4,1.6,0,3.8-1.4,6.9l0,0c0,0.1-0.1,0.1-0.1,0.2l-5.7,9.4c-2.2,3.6-4.5,7.3-7.5,10.1L73.7,82l0,0 c0.4,0.5,0.8,1.1,1.2,1.7c0.8,1.1,1.6,2.4,2.5,3.6c5.3,4.5,19.3,5.9,26.7,8.6c7.6-9.4,12.1-21.4,12.1-34.4c0-15.1-6.1-28.8-16-38.7 c-9.9-9.9-23.6-16-38.7-16s-28.8,6.1-38.7,16c-9.9,9.9-16,23.6-16,38.7C6.7,74.4,11.2,86.3,18.8,95.7L18.8,95.7z M77,90.5 c-1.4-1.6-2.8-3.7-4.1-5.5c-0.4-0.5-0.7-1.1-1.1-1.5c-2.7,2-6,3.3-10.3,3.3c-4.5,0-8-1.6-10.9-4.1c0,0,0,0.1-0.1,0.1 c-0.5,0.7-1,1.4-1.6,2.3c-1.1,1.6-2.3,3.3-3.4,4.8C45.6,100,71.1,106,77,90.5L77,90.5z"/>
        </g>
    </symbol>
    <symbol id="remove">
        <g>
            <path d="M322.383,90.222h-2.84l0.436-11.816c0.368-10.004-3.254-19.481-10.201-26.689c-6.946-7.207-16.284-11.176-26.294-11.176
		h-48.463V22.934C235.021,10.288,224.732,0,212.087,0h-43.576c-12.646,0-22.933,10.288-22.933,22.934V40.54H97.114
		c-10.01,0-19.348,3.97-26.294,11.177c-6.947,7.207-10.569,16.686-10.2,26.688l0.436,11.816h-2.841c-8.284,0-15,6.716-15,15
		s6.716,15,15,15h3.948l8.309,225.202c0.728,19.724,16.758,35.174,36.494,35.174h166.667c19.736,0,35.766-15.45,36.494-35.174
		l8.309-225.202h3.947c8.284,0,15-6.716,15-15S330.667,90.222,322.383,90.222z M175.578,30h29.443v10.54h-29.443V30z M90.599,77.3
		c-0.089-2.41,1.103-4.02,1.821-4.765s2.283-1.995,4.694-1.995h186.37c2.411,0,3.976,1.25,4.694,1.995
		c0.718,0.745,1.909,2.355,1.82,4.765l-0.477,12.922H91.076L90.599,77.3z M280.147,344.318c-0.131,3.521-2.992,6.279-6.515,6.279
		h-15.714V226.13c0-8.284-6.716-15-15-15s-15,6.716-15,15v124.468h-22.62V226.13c0-8.284-6.716-15-15-15s-15,6.716-15,15v124.468
		h-22.621V226.13c0-8.284-6.716-15-15-15s-15,6.716-15,15v124.468h-15.713c-3.523,0-6.385-2.758-6.515-6.279l-8.268-224.097h196.232
		L280.147,344.318z"/>
        </g>
        <g>
        </g>
        <g>
        </g>
        <g>
        </g>
        <g>
        </g>
        <g>
        </g>
        <g>
        </g>
        <g>
        </g>
        <g>
        </g>
        <g>
        </g>
        <g>
        </g>
        <g>
        </g>
        <g>
        </g>
        <g>
        </g>
        <g>
        </g>
        <g>
        </g>
    </symbol>
    <symbol id="logo-inline">
        <path d="M33.4998 0C14.9982 0 0 14.9986 0 33.5002C0 52.0018 14.9982 67 33.4998 67C52.0014 67 67 52.0018 67 33.5002C67 14.9986 52.0014 0 33.4998 0ZM21.6431 44.3997C21.6431 44.643 21.4441 44.842 21.2008 44.842H14.7929C14.5496 44.842 14.3506 44.643 14.3506 44.3997V33.4099C14.3506 33.1666 14.5496 32.9676 14.7929 32.9676H21.2008C21.4441 32.9676 21.6431 33.1666 21.6431 33.4099V44.3997ZM35.0213 52.0943C34.9498 52.5009 34.7243 52.8551 34.3863 53.0917C34.0479 53.3284 33.638 53.4194 33.2315 53.3479C32.8253 53.2764 32.4711 53.0508 32.2341 52.7124C32.0081 52.3896 31.9149 52.0007 31.9698 51.6122C31.972 51.5941 31.975 51.5761 31.9783 51.558C32.0498 51.1515 32.2754 50.7973 32.6134 50.5606C32.8762 50.3767 33.1821 50.2809 33.4965 50.2809C33.5864 50.2809 33.6775 50.2886 33.7678 50.3045C34.1743 50.3763 34.5285 50.6019 34.7652 50.9399C34.9078 51.1434 34.9978 51.373 35.0306 51.6122C35.0527 51.7703 35.0497 51.9325 35.0213 52.0943ZM39.0976 46.2282C39.0976 48.5356 37.6833 50.5282 35.6789 51.3818C35.6188 51.087 35.4983 50.805 35.3203 50.551C34.9797 50.0645 34.4703 49.7402 33.8854 49.6369C33.3008 49.5341 32.7107 49.665 32.2245 50.0055C31.7546 50.3347 31.4354 50.8223 31.3218 51.3826C29.3167 50.5293 27.9017 48.536 27.9017 46.2282V44.9028H34.4666C34.6922 44.9028 34.8769 44.7185 34.8769 44.4929V43.3087C34.8769 43.0831 34.6922 42.8988 34.4666 42.8988H27.9017V41.2719H34.4666C34.6922 41.2719 34.8769 41.0872 34.8769 40.862V39.6777C34.8769 39.4521 34.6922 39.2675 34.4666 39.2675H27.9017V37.6409H34.4666C34.6922 37.6409 34.8769 37.4562 34.8769 37.2307V36.0464C34.8769 35.8208 34.6922 35.6365 34.4666 35.6365H27.9017V34.0096H34.4666C34.6922 34.0096 34.8769 33.8253 34.8769 33.5997V32.4154C34.8769 32.1899 34.6922 32.0052 34.4666 32.0052H27.9249C28.1822 29.1608 30.5909 26.9128 33.4998 26.9128C35.039 26.9128 36.4386 27.5423 37.4533 28.5571C38.468 29.5718 39.0976 30.9709 39.0976 32.5105V46.2282ZM42.0979 17.6487C40.9361 16.4866 39.5834 15.5747 38.0773 14.9374C36.5185 14.2783 34.8621 13.944 33.1544 13.944C31.4468 13.944 29.79 14.2783 28.2312 14.9374C26.7252 15.5747 25.3725 16.4866 24.2107 17.6487C23.0485 18.8105 22.1363 20.1636 21.4993 21.6693C21.0895 22.6383 20.8053 23.6449 20.649 24.6784H21.4566V31.7103H17.3056V24.6784H18.377C18.5481 23.3419 18.8993 22.0412 19.4275 20.7928C20.1776 19.0187 21.2516 17.4257 22.6195 16.0575C23.9877 14.6897 25.5807 13.6156 27.3547 12.8655C29.1921 12.0882 31.1434 11.6942 33.1544 11.6942C35.1655 11.6942 37.116 12.0882 38.9534 12.8655C40.7278 13.6156 42.3212 14.6897 43.6887 16.0575C45.0565 17.4257 46.1306 19.0187 46.8814 20.7928C47.4092 22.0412 47.7605 23.3419 47.9311 24.6784H49.003V31.7103H44.8523V24.6784H45.6595C45.5032 23.6449 45.2191 22.6383 44.8092 21.6693C44.1723 20.1636 43.2596 18.8105 42.0979 17.6487ZM52.129 44.3997C52.129 44.643 51.9299 44.842 51.6867 44.842H45.2784C45.0351 44.842 44.8361 44.643 44.8361 44.3997V33.4099C44.8361 33.1666 45.0351 32.9676 45.2784 32.9676H51.6867C51.9299 32.9676 52.129 33.1666 52.129 33.4099V44.3997Z"
              fill="white"/>
        <path d="M75 21.1572H76.0981L78.2095 26.0412H78.2277L80.3602 21.1572H81.4341V27.385H80.6939V22.1613H80.6757L78.44 27.3881H77.991L75.7584 22.1613H75.7402V27.385H75V21.1572Z"
              fill="white"/>
        <path d="M84.4487 24.7034L82.125 21.1572H83.0654L84.8157 23.9723L86.6207 21.1572H87.5095L85.1858 24.7034V27.385H84.4456V24.7034H84.4487Z"
              fill="white"/>
        <path d="M93.546 27.5463C93.0697 27.5463 92.6359 27.4644 92.2385 27.3006C91.8411 27.1368 91.4984 26.9093 91.2102 26.6181C90.922 26.3268 90.6945 25.981 90.5337 25.5806C90.3729 25.1802 90.291 24.7434 90.291 24.2732C90.291 23.803 90.3729 23.3692 90.5337 22.9657C90.6945 22.5653 90.922 22.2195 91.2102 21.9283C91.4984 21.637 91.8442 21.4095 92.2385 21.2457C92.6329 21.0819 93.0697 21 93.546 21C94.0222 21 94.456 21.0819 94.8534 21.2457C95.2508 21.4095 95.5936 21.637 95.8818 21.9283C96.17 22.2195 96.3975 22.5653 96.5583 22.9657C96.719 23.3661 96.8009 23.803 96.8009 24.2732C96.8009 24.7434 96.719 25.1771 96.5583 25.5806C96.3975 25.9841 96.17 26.3299 95.8818 26.6181C95.5936 26.9062 95.2478 27.1368 94.8534 27.3006C94.4591 27.4644 94.0222 27.5463 93.546 27.5463ZM93.546 26.8607C93.91 26.8607 94.2437 26.794 94.544 26.6575C94.8474 26.524 95.1052 26.339 95.3236 26.1024C95.539 25.8688 95.7089 25.5927 95.8302 25.2803C95.9515 24.9678 96.0092 24.6311 96.0092 24.2732C96.0092 23.9152 95.9485 23.5785 95.8302 23.266C95.7089 22.9536 95.542 22.6775 95.3236 22.444C95.1052 22.2104 94.8474 22.0253 94.544 21.8888C94.2406 21.7553 93.91 21.6856 93.546 21.6856C93.182 21.6856 92.8483 21.7523 92.5479 21.8888C92.2446 22.0253 91.9867 22.2073 91.7683 22.444C91.5499 22.6806 91.3831 22.9536 91.2617 23.266C91.1404 23.5815 91.0828 23.9152 91.0828 24.2732C91.0828 24.6311 91.1434 24.9678 91.2617 25.2803C91.3831 25.5927 91.5499 25.8688 91.7683 26.1024C91.9867 26.3359 92.2446 26.521 92.5479 26.6575C92.8513 26.794 93.182 26.8607 93.546 26.8607Z"
              fill="white"/>
        <path d="M97.2656 21.1572H98.0847L99.5013 26.3294H99.5195L101.048 21.1572H101.877L103.399 26.3294H103.418L104.859 21.1572H105.632L103.803 27.385H103.002L101.461 22.1067H101.443L99.8957 27.385H99.0857L97.2656 21.1572Z"
              fill="white"/>
        <path d="M106.463 21.1572H107.394L111.001 26.3294H111.019V21.1572H111.759V27.385H110.828L107.221 22.2129H107.203V27.385H106.463V21.1572Z"
              fill="white"/>
        <path d="M75 32.2788H77.6543L82.7506 44.064H82.7931L87.9319 32.2788H90.5225V47.3129H88.7388V34.6996H88.6963L83.3027 47.3129H82.2198L76.8262 34.6996H76.7837V47.3129H75V32.2788Z"
              fill="white"/>
        <path d="M105.535 41.5796C105.535 42.4016 105.431 43.1782 105.225 43.9154C105.019 44.6525 104.694 45.2986 104.248 45.8598C103.802 46.418 103.217 46.8639 102.495 47.1976C101.773 47.5313 100.896 47.6951 99.8619 47.6951C98.8275 47.6951 97.9508 47.5283 97.2288 47.1976C96.5068 46.867 95.9214 46.418 95.4785 45.8598C95.0326 45.3017 94.708 44.6525 94.5017 43.9154C94.2954 43.1782 94.1953 42.4016 94.1953 41.5796V32.2788H95.979V41.3247C95.979 41.9345 96.0427 42.5199 96.1701 43.0872C96.2975 43.6545 96.5099 44.155 96.8072 44.5949C97.1045 45.0347 97.5018 45.3836 97.9963 45.6445C98.4908 45.9053 99.1157 46.0358 99.8649 46.0358C100.614 46.0358 101.239 45.9053 101.734 45.6445C102.228 45.3836 102.625 45.0317 102.923 44.5949C103.22 44.155 103.432 43.6545 103.56 43.0872C103.687 42.5199 103.751 41.9345 103.751 41.3247V32.2788H105.535V41.5796Z"
              fill="white"/>
        <path d="M116.341 34.9333C116.044 34.451 115.646 34.1022 115.152 33.8807C114.657 33.6623 114.139 33.5531 113.602 33.5531C113.204 33.5531 112.816 33.6016 112.434 33.7017C112.052 33.8018 111.709 33.9505 111.403 34.1477C111.099 34.3448 110.853 34.6088 110.671 34.9333C110.486 35.2579 110.395 35.6401 110.395 36.08C110.395 36.4198 110.447 36.7201 110.553 36.984C110.659 37.2479 110.832 37.4815 111.072 37.6938C111.312 37.9062 111.639 38.1034 112.049 38.2884C112.458 38.4735 112.962 38.6555 113.556 38.8405C114.136 39.0256 114.7 39.2227 115.246 39.4351C115.792 39.6474 116.271 39.9174 116.69 40.242C117.109 40.5666 117.439 40.9761 117.688 41.4615C117.937 41.9499 118.061 42.5626 118.061 43.2967C118.061 44.0308 117.912 44.6982 117.615 45.2503C117.318 45.8024 116.927 46.2605 116.438 46.6184C115.95 46.9794 115.386 47.2494 114.752 47.4253C114.114 47.6013 113.456 47.6923 112.777 47.6923C112.337 47.6923 111.9 47.6529 111.46 47.577C111.02 47.4981 110.602 47.3798 110.195 47.216C109.792 47.0522 109.413 46.8399 109.058 46.579C108.703 46.3181 108.399 45.9966 108.145 45.6143L109.673 44.3615C109.998 44.9136 110.453 45.3322 111.032 45.6143C111.612 45.8965 112.228 46.039 112.88 46.039C113.262 46.039 113.647 45.9814 114.036 45.8692C114.424 45.7569 114.776 45.5901 115.085 45.3686C115.398 45.1502 115.652 44.8772 115.85 44.5526C116.047 44.228 116.147 43.8519 116.147 43.4272C116.147 42.96 116.068 42.5808 115.913 42.2896C115.759 41.9984 115.516 41.7466 115.191 41.5343C114.867 41.3219 114.454 41.1308 113.96 40.9609C113.465 40.7911 112.883 40.5939 112.219 40.3664C111.682 40.1965 111.184 40.0023 110.732 39.7809C110.28 39.5625 109.886 39.2925 109.552 38.974C109.218 38.6555 108.958 38.2732 108.766 37.8273C108.575 37.3814 108.478 36.8475 108.478 36.2226C108.478 35.5006 108.621 34.8696 108.903 34.3327C109.185 33.7958 109.567 33.3438 110.05 32.9828C110.532 32.6218 111.075 32.3488 111.685 32.1637C112.294 31.9787 112.931 31.8877 113.596 31.8877C114.445 31.8877 115.219 32.0181 115.922 32.279C116.623 32.5399 117.251 32.998 117.8 33.6502L116.335 34.9242L116.341 34.9333Z"
              fill="white"/>
        <path d="M121.016 32.2788H122.799V47.3129H121.016V32.2788Z" fill="white"/>
        <path d="M137.067 35.3794C136.615 34.7697 136.054 34.3147 135.389 34.0083C134.725 33.7049 134.03 33.5533 133.308 33.5533C132.474 33.5533 131.704 33.7231 131.003 34.0629C130.302 34.4027 129.695 34.8577 129.189 35.431C128.679 36.0043 128.282 36.6687 128 37.4271C127.718 38.1854 127.575 38.9742 127.575 39.7932C127.575 40.6699 127.718 41.4889 128 42.2443C128.282 43.0027 128.676 43.6609 129.177 44.2191C129.68 44.7773 130.281 45.2202 130.982 45.5478C131.682 45.8724 132.456 46.0362 133.308 46.0362C134.227 46.0362 135.05 45.8572 135.772 45.4932C136.493 45.1322 137.124 44.6135 137.661 43.9339L138.999 45.0594C138.32 45.9664 137.504 46.6307 136.548 47.0554C135.593 47.4801 134.513 47.6925 133.311 47.6925C132.234 47.6925 131.23 47.4953 130.296 47.0979C129.362 46.7005 128.552 46.1514 127.866 45.4537C127.181 44.753 126.641 43.9218 126.252 42.9602C125.864 41.9986 125.67 40.9429 125.67 39.7962C125.67 38.6496 125.858 37.6576 126.231 36.696C126.607 35.7344 127.135 34.8971 127.812 34.1903C128.491 33.4835 129.298 32.9223 130.232 32.5128C131.167 32.1033 132.192 31.897 133.311 31.897C134.331 31.897 135.31 32.082 136.254 32.4491C137.194 32.8161 137.983 33.4198 138.62 34.254L137.07 35.3794H137.067Z"
              fill="white"/>
    </symbol>
    <symbol id="login-block">
        <g clip-path="url(#clip0_22_3879)">
            <path d="M33.4993 0C14.998 0 0 14.9983 0 33.4997C0 52.001 14.998 66.999 33.4993 66.999C52.0007 66.999 66.999 52.001 66.999 33.4997C66.999 14.9983 52.0007 0 33.4993 0ZM21.6428 44.399C21.6428 44.6423 21.4437 44.8413 21.2005 44.8413H14.7927C14.5494 44.8413 14.3504 44.6423 14.3504 44.399V33.4094C14.3504 33.1661 14.5494 32.9671 14.7927 32.9671H21.2005C21.4437 32.9671 21.6428 33.1661 21.6428 33.4094V44.399ZM35.0208 52.0935C34.9493 52.5001 34.7237 52.8543 34.3858 53.0909C34.0474 53.3276 33.6375 53.4186 33.231 53.3471C32.8248 53.2756 32.4706 53.05 32.2336 52.7117C32.0077 52.3888 31.9144 51.9999 31.9693 51.6114C31.9715 51.5934 31.9745 51.5753 31.9778 51.5573C32.0493 51.1507 32.2749 50.7965 32.6129 50.5599C32.8757 50.3759 33.1816 50.2801 33.496 50.2801C33.5859 50.2801 33.677 50.2879 33.7673 50.3037C34.1738 50.3756 34.528 50.6012 34.7647 50.9391C34.9073 51.1426 34.9972 51.3722 35.03 51.6114C35.0522 51.7696 35.0492 51.9317 35.0208 52.0935V52.0935ZM39.097 46.2276C39.097 48.5349 37.6827 50.5274 35.6784 51.3811C35.6183 51.0862 35.4978 50.8042 35.3197 50.5503C34.9792 50.0638 34.4698 49.7394 33.8849 49.6362C33.3003 49.5334 32.7102 49.6642 32.224 50.0048C31.7541 50.3339 31.4349 50.8216 31.3214 51.3818C29.3163 50.5285 27.9013 48.5352 27.9013 46.2276V44.9021H34.4661C34.6917 44.9021 34.8763 44.7178 34.8763 44.4923V43.308C34.8763 43.0824 34.6917 42.8982 34.4661 42.8982H27.9013V41.2712H34.4661C34.6917 41.2712 34.8763 41.0866 34.8763 40.8614V39.6771C34.8763 39.4515 34.6917 39.2669 34.4661 39.2669H27.9013V37.6403H34.4661C34.6917 37.6403 34.8763 37.4557 34.8763 37.2301V36.0458C34.8763 35.8203 34.6917 35.636 34.4661 35.636H27.9013V34.0091H34.4661C34.6917 34.0091 34.8763 33.8248 34.8763 33.5992V32.4149C34.8763 32.1894 34.6917 32.0047 34.4661 32.0047H27.9245C28.1818 29.1604 30.5905 26.9124 33.4993 26.9124C35.0385 26.9124 36.438 27.5419 37.4527 28.5566C38.4674 29.5713 39.097 30.9705 39.097 32.51V46.2276ZM42.0972 17.6484C40.9355 16.4863 39.5828 15.5744 38.0767 14.9372C36.518 14.2781 34.8616 13.9438 33.154 13.9438C31.4463 13.9438 29.7895 14.2781 28.2308 14.9372C26.7248 15.5744 25.3721 16.4863 24.2103 17.6484C23.0482 18.8102 22.1359 20.1633 21.499 21.6689C21.0892 22.6379 20.805 23.6445 20.6487 24.678H21.4563V31.7098H17.3053V24.678H18.3768C18.5478 23.3416 18.899 22.0408 19.4272 20.7924C20.1773 19.0185 21.2513 17.4255 22.6191 16.0573C23.9873 14.6895 25.5803 13.6154 27.3543 12.8654C29.1917 12.088 31.143 11.694 33.154 11.694C35.1649 11.694 37.1155 12.088 38.9529 12.8654C40.7272 13.6154 42.3206 14.6895 43.688 16.0573C45.0558 17.4255 46.1299 19.0185 46.8807 20.7924C47.4085 22.0408 47.7598 23.3416 47.9304 24.678H49.0022V31.7098H44.8516V24.678H45.6588C45.5026 23.6445 45.2184 22.6379 44.8085 21.6689C44.1716 20.1633 43.259 18.8102 42.0972 17.6484V17.6484ZM52.1282 44.399C52.1282 44.6423 51.9292 44.8413 51.6859 44.8413H45.2777C45.0345 44.8413 44.8354 44.6423 44.8354 44.399V33.4094C44.8354 33.1661 45.0345 32.9671 45.2777 32.9671H51.6859C51.9292 32.9671 52.1282 33.1661 52.1282 33.4094V44.399Z"
                  fill="white"/>
        </g>
        <path d="M14.75 73.1558H15.8481L17.9594 78.0396H17.9776L20.1101 73.1558H21.184V79.3835H20.4438V74.1598H20.4256L18.19 79.3865H17.741L15.5084 74.1598H15.4902V79.3835H14.75V73.1558Z"
              fill="white"/>
        <path d="M24.1986 76.7019L21.875 73.1558H22.8154L24.5657 75.9708L26.3706 73.1558H27.2594L24.9358 76.7019V79.3835H24.1956V76.7019H24.1986Z"
              fill="white"/>
        <path d="M33.2959 79.5452C32.8197 79.5452 32.3859 79.4633 31.9885 79.2995C31.5911 79.1357 31.2483 78.9082 30.9602 78.617C30.672 78.3258 30.4445 77.98 30.2837 77.5796C30.1229 77.1791 30.041 76.7423 30.041 76.2721C30.041 75.8019 30.1229 75.3682 30.2837 74.9647C30.4445 74.5643 30.672 74.2185 30.9602 73.9273C31.2483 73.6361 31.5942 73.4085 31.9885 73.2447C32.3829 73.0809 32.8197 72.999 33.2959 72.999C33.7722 72.999 34.206 73.0809 34.6034 73.2447C35.0007 73.4085 35.3435 73.6361 35.6317 73.9273C35.9199 74.2185 36.1474 74.5643 36.3082 74.9647C36.4689 75.3651 36.5508 75.8019 36.5508 76.2721C36.5508 76.7423 36.4689 77.1761 36.3082 77.5796C36.1474 77.983 35.9199 78.3288 35.6317 78.617C35.3435 78.9052 34.9977 79.1357 34.6034 79.2995C34.209 79.4633 33.7722 79.5452 33.2959 79.5452V79.5452ZM33.2959 78.8597C33.6599 78.8597 33.9936 78.7929 34.2939 78.6564C34.5973 78.523 34.8551 78.3379 35.0735 78.1013C35.2889 77.8677 35.4588 77.5917 35.5801 77.2792C35.7015 76.9668 35.7591 76.6301 35.7591 76.2721C35.7591 75.9142 35.6984 75.5775 35.5801 75.265C35.4588 74.9526 35.2919 74.6765 35.0735 74.443C34.8551 74.2094 34.5973 74.0243 34.2939 73.8878C33.9906 73.7544 33.6599 73.6846 33.2959 73.6846C32.9319 73.6846 32.5982 73.7513 32.2979 73.8878C31.9946 74.0243 31.7367 74.2063 31.5183 74.443C31.2999 74.6796 31.1331 74.9526 31.0117 75.265C30.8904 75.5805 30.8328 75.9142 30.8328 76.2721C30.8328 76.6301 30.8934 76.9668 31.0117 77.2792C31.1331 77.5917 31.2999 77.8677 31.5183 78.1013C31.7367 78.3349 31.9946 78.5199 32.2979 78.6564C32.6013 78.7929 32.9319 78.8597 33.2959 78.8597Z"
              fill="white"/>
        <path d="M37.0137 73.1558H37.8327L39.2493 78.3278H39.2675L40.7964 73.1558H41.6245L43.1473 78.3278H43.1655L44.6064 73.1558H45.38L43.5508 79.3835H42.75L41.209 74.1052H41.1908L39.6437 79.3835H38.8338L37.0137 73.1558Z"
              fill="white"/>
        <path d="M46.2109 73.1558H47.1422L50.749 78.3278H50.7672V73.1558H51.5074V79.3835H50.5761L46.9693 74.2114H46.9511V79.3835H46.2109V73.1558V73.1558Z"
              fill="white"/>
        <path d="M3.00195 84.2773H5.65624L10.7525 96.0624H10.7949L15.9336 84.2773H18.5242V99.3112H16.7405V86.698H16.6981L11.3046 99.3112H10.2216L4.8281 86.698H4.78563V99.3112H3.00195V84.2773Z"
              fill="white"/>
        <path d="M33.5364 93.578C33.5364 94.4 33.4332 95.1766 33.227 95.9137C33.0207 96.6509 32.6961 97.297 32.2502 97.8582C31.8043 98.4163 31.2188 98.8623 30.4968 99.1959C29.7749 99.5296 28.8982 99.6934 27.8638 99.6934C26.8294 99.6934 25.9527 99.5266 25.2307 99.1959C24.5088 98.8653 23.9233 98.4163 23.4804 97.8582C23.0345 97.3 22.7099 96.6509 22.5036 95.9137C22.2974 95.1766 22.1973 94.4 22.1973 93.578V84.2773H23.9809V93.3231C23.9809 93.9329 24.0446 94.5183 24.1721 95.0856C24.2995 95.6528 24.5118 96.1534 24.8091 96.5932C25.1064 97.0331 25.5037 97.3819 25.9982 97.6428C26.4927 97.9037 27.1175 98.0341 27.8668 98.0341C28.6161 98.0341 29.241 97.9037 29.7354 97.6428C30.2299 97.3819 30.6273 97.03 30.9246 96.5932C31.2218 96.1534 31.4342 95.6528 31.5616 95.0856C31.689 94.5183 31.7527 93.9329 31.7527 93.3231V84.2773H33.5364V93.578V93.578Z"
              fill="white"/>
        <path d="M44.3429 86.9318C44.0456 86.4495 43.6482 86.1007 43.1538 85.8792C42.6593 85.6608 42.1406 85.5516 41.6037 85.5516C41.2063 85.5516 40.818 85.6001 40.4358 85.7002C40.0536 85.8003 39.7108 85.949 39.4044 86.1462C39.1011 86.3433 38.8554 86.6073 38.6734 86.9318C38.4883 87.2564 38.3973 87.6386 38.3973 88.0785C38.3973 88.4182 38.4489 88.7185 38.5551 88.9825C38.6612 89.2464 38.8341 89.4799 39.0738 89.6923C39.3134 89.9046 39.641 90.1018 40.0506 90.2868C40.4601 90.4719 40.9636 90.6539 41.5582 90.8389C42.1376 91.024 42.7018 91.2212 43.2478 91.4335C43.7939 91.6458 44.2731 91.9158 44.6918 92.2404C45.1104 92.565 45.441 92.9745 45.6898 93.4599C45.9385 93.9482 46.0629 94.561 46.0629 95.2951C46.0629 96.0292 45.9143 96.6966 45.617 97.2487C45.3197 97.8007 44.9284 98.2588 44.44 98.6167C43.9516 98.9777 43.3874 99.2477 42.7534 99.4236C42.1163 99.5996 41.4581 99.6906 40.7786 99.6906C40.3387 99.6906 39.9019 99.6512 39.4621 99.5753C39.0222 99.4965 38.6036 99.3781 38.1971 99.2143C37.7937 99.0505 37.4145 98.8382 37.0596 98.5773C36.7046 98.3164 36.4013 97.9949 36.1465 97.6127L37.6754 96.3598C37.9999 96.9119 38.455 97.3306 39.0343 97.6127C39.6137 97.8948 40.2295 98.0374 40.8817 98.0374C41.2639 98.0374 41.6492 97.9797 42.0375 97.8675C42.4258 97.7552 42.7776 97.5884 43.0871 97.367C43.3995 97.1485 43.6543 96.8755 43.8515 96.551C44.0487 96.2264 44.1488 95.8502 44.1488 95.4255C44.1488 94.9584 44.0699 94.5792 43.9152 94.288C43.7605 93.9968 43.5178 93.745 43.1932 93.5327C42.8686 93.3203 42.4561 93.1292 41.9616 92.9593C41.4672 92.7895 40.8848 92.5923 40.2204 92.3648C39.6835 92.1949 39.186 92.0008 38.734 91.7793C38.282 91.5609 37.8877 91.2909 37.554 90.9724C37.2203 90.6539 36.9595 90.2717 36.7683 89.8258C36.5772 89.3798 36.4802 88.8459 36.4802 88.2211C36.4802 87.4991 36.6227 86.8681 36.9049 86.3312C37.187 85.7943 37.5692 85.3423 38.0515 84.9813C38.5338 84.6203 39.0768 84.3473 39.6865 84.1623C40.2963 83.9772 40.9333 83.8862 41.5976 83.8862C42.447 83.8862 43.2205 84.0167 43.9243 84.2775C44.625 84.5384 45.253 84.9965 45.802 85.6487L44.3368 86.9227L44.3429 86.9318Z"
              fill="white"/>
        <path d="M49.0156 84.2773H50.7993V99.3112H49.0156V84.2773Z" fill="white"/>
        <path d="M65.0667 87.3779C64.6147 86.7682 64.0535 86.3132 63.3892 86.0068C62.7248 85.7035 62.0302 85.5518 61.3082 85.5518C60.474 85.5518 59.7035 85.7217 59.0028 86.0614C58.302 86.4012 57.6953 86.8562 57.1887 87.4295C56.6791 88.0028 56.2817 88.6672 55.9996 89.4255C55.7175 90.1839 55.5749 90.9726 55.5749 91.7916C55.5749 92.6683 55.7175 93.4873 55.9996 94.2427C56.2817 95.001 56.6761 95.6593 57.1766 96.2175C57.6802 96.7756 58.2808 97.2185 58.9815 97.5461C59.6823 97.8707 60.4558 98.0345 61.3082 98.0345C62.2273 98.0345 63.0494 97.8555 63.7714 97.4915C64.4933 97.1305 65.1243 96.6118 65.6612 95.9323L66.999 97.0577C66.3195 97.9647 65.5035 98.6291 64.5479 99.0537C63.5924 99.4784 62.5125 99.6908 61.3112 99.6908C60.2343 99.6908 59.2303 99.4936 58.296 99.0962C57.3617 98.6988 56.5517 98.1498 55.8662 97.4521C55.1806 96.7513 54.6406 95.9202 54.2524 94.9586C53.8641 93.997 53.6699 92.9413 53.6699 91.7947C53.6699 90.648 53.858 89.6561 54.2311 88.6945C54.6073 87.7328 55.1351 86.8956 55.8116 86.1888C56.4911 85.482 57.298 84.9208 58.2323 84.5113C59.1666 84.1018 60.1919 83.8955 61.3112 83.8955C62.3305 83.8955 63.3103 84.0806 64.2537 84.4476C65.1941 84.8146 65.9828 85.4183 66.6198 86.2525L65.0697 87.3779H65.0667Z"
              fill="white"/>
        <defs>
            <clipPath id="clip0_22_3879">
                <rect width="66.999" height="66.999" fill="white"/>
            </clipPath>
        </defs>
    </symbol>
    <symbol id="login-block-color">
        <g clip-path="url(#clip0_22_3879)">
            <path d="M33.4993 0C14.998 0 0 14.9983 0 33.4997C0 52.001 14.998 66.999 33.4993 66.999C52.0007 66.999 66.999 52.001 66.999 33.4997C66.999 14.9983 52.0007 0 33.4993 0ZM21.6428 44.399C21.6428 44.6423 21.4437 44.8413 21.2005 44.8413H14.7927C14.5494 44.8413 14.3504 44.6423 14.3504 44.399V33.4094C14.3504 33.1661 14.5494 32.9671 14.7927 32.9671H21.2005C21.4437 32.9671 21.6428 33.1661 21.6428 33.4094V44.399ZM35.0208 52.0935C34.9493 52.5001 34.7237 52.8543 34.3858 53.0909C34.0474 53.3276 33.6375 53.4186 33.231 53.3471C32.8248 53.2756 32.4706 53.05 32.2336 52.7117C32.0077 52.3888 31.9144 51.9999 31.9693 51.6114C31.9715 51.5934 31.9745 51.5753 31.9778 51.5573C32.0493 51.1507 32.2749 50.7965 32.6129 50.5599C32.8757 50.3759 33.1816 50.2801 33.496 50.2801C33.5859 50.2801 33.677 50.2879 33.7673 50.3037C34.1738 50.3756 34.528 50.6012 34.7647 50.9391C34.9073 51.1426 34.9972 51.3722 35.03 51.6114C35.0522 51.7696 35.0492 51.9317 35.0208 52.0935V52.0935ZM39.097 46.2276C39.097 48.5349 37.6827 50.5274 35.6784 51.3811C35.6183 51.0862 35.4978 50.8042 35.3197 50.5503C34.9792 50.0638 34.4698 49.7394 33.8849 49.6362C33.3003 49.5334 32.7102 49.6642 32.224 50.0048C31.7541 50.3339 31.4349 50.8216 31.3214 51.3818C29.3163 50.5285 27.9013 48.5352 27.9013 46.2276V44.9021H34.4661C34.6917 44.9021 34.8763 44.7178 34.8763 44.4923V43.308C34.8763 43.0824 34.6917 42.8982 34.4661 42.8982H27.9013V41.2712H34.4661C34.6917 41.2712 34.8763 41.0866 34.8763 40.8614V39.6771C34.8763 39.4515 34.6917 39.2669 34.4661 39.2669H27.9013V37.6403H34.4661C34.6917 37.6403 34.8763 37.4557 34.8763 37.2301V36.0458C34.8763 35.8203 34.6917 35.636 34.4661 35.636H27.9013V34.0091H34.4661C34.6917 34.0091 34.8763 33.8248 34.8763 33.5992V32.4149C34.8763 32.1894 34.6917 32.0047 34.4661 32.0047H27.9245C28.1818 29.1604 30.5905 26.9124 33.4993 26.9124C35.0385 26.9124 36.438 27.5419 37.4527 28.5566C38.4674 29.5713 39.097 30.9705 39.097 32.51V46.2276ZM42.0972 17.6484C40.9355 16.4863 39.5828 15.5744 38.0767 14.9372C36.518 14.2781 34.8616 13.9438 33.154 13.9438C31.4463 13.9438 29.7895 14.2781 28.2308 14.9372C26.7248 15.5744 25.3721 16.4863 24.2103 17.6484C23.0482 18.8102 22.1359 20.1633 21.499 21.6689C21.0892 22.6379 20.805 23.6445 20.6487 24.678H21.4563V31.7098H17.3053V24.678H18.3768C18.5478 23.3416 18.899 22.0408 19.4272 20.7924C20.1773 19.0185 21.2513 17.4255 22.6191 16.0573C23.9873 14.6895 25.5803 13.6154 27.3543 12.8654C29.1917 12.088 31.143 11.694 33.154 11.694C35.1649 11.694 37.1155 12.088 38.9529 12.8654C40.7272 13.6154 42.3206 14.6895 43.688 16.0573C45.0558 17.4255 46.1299 19.0185 46.8807 20.7924C47.4085 22.0408 47.7598 23.3416 47.9304 24.678H49.0022V31.7098H44.8516V24.678H45.6588C45.5026 23.6445 45.2184 22.6379 44.8085 21.6689C44.1716 20.1633 43.259 18.8102 42.0972 17.6484V17.6484ZM52.1282 44.399C52.1282 44.6423 51.9292 44.8413 51.6859 44.8413H45.2777C45.0345 44.8413 44.8354 44.6423 44.8354 44.399V33.4094C44.8354 33.1661 45.0345 32.9671 45.2777 32.9671H51.6859C51.9292 32.9671 52.1282 33.1661 52.1282 33.4094V44.399Z"
                  fill="#464064"/>
        </g>
        <path d="M14.75 73.1558H15.8481L17.9594 78.0396H17.9776L20.1101 73.1558H21.184V79.3835H20.4438V74.1598H20.4256L18.19 79.3865H17.741L15.5084 74.1598H15.4902V79.3835H14.75V73.1558Z"
              fill="#464064"/>
        <path d="M24.1986 76.7019L21.875 73.1558H22.8154L24.5657 75.9708L26.3706 73.1558H27.2594L24.9358 76.7019V79.3835H24.1956V76.7019H24.1986Z"
              fill="#464064"/>
        <path d="M33.2959 79.5452C32.8197 79.5452 32.3859 79.4633 31.9885 79.2995C31.5911 79.1357 31.2483 78.9082 30.9602 78.617C30.672 78.3258 30.4445 77.98 30.2837 77.5796C30.1229 77.1791 30.041 76.7423 30.041 76.2721C30.041 75.8019 30.1229 75.3682 30.2837 74.9647C30.4445 74.5643 30.672 74.2185 30.9602 73.9273C31.2483 73.6361 31.5942 73.4085 31.9885 73.2447C32.3829 73.0809 32.8197 72.999 33.2959 72.999C33.7722 72.999 34.206 73.0809 34.6034 73.2447C35.0007 73.4085 35.3435 73.6361 35.6317 73.9273C35.9199 74.2185 36.1474 74.5643 36.3082 74.9647C36.4689 75.3651 36.5508 75.8019 36.5508 76.2721C36.5508 76.7423 36.4689 77.1761 36.3082 77.5796C36.1474 77.983 35.9199 78.3288 35.6317 78.617C35.3435 78.9052 34.9977 79.1357 34.6034 79.2995C34.209 79.4633 33.7722 79.5452 33.2959 79.5452V79.5452ZM33.2959 78.8597C33.6599 78.8597 33.9936 78.7929 34.2939 78.6564C34.5973 78.523 34.8551 78.3379 35.0735 78.1013C35.2889 77.8677 35.4588 77.5917 35.5801 77.2792C35.7015 76.9668 35.7591 76.6301 35.7591 76.2721C35.7591 75.9142 35.6984 75.5775 35.5801 75.265C35.4588 74.9526 35.2919 74.6765 35.0735 74.443C34.8551 74.2094 34.5973 74.0243 34.2939 73.8878C33.9906 73.7544 33.6599 73.6846 33.2959 73.6846C32.9319 73.6846 32.5982 73.7513 32.2979 73.8878C31.9946 74.0243 31.7367 74.2063 31.5183 74.443C31.2999 74.6796 31.1331 74.9526 31.0117 75.265C30.8904 75.5805 30.8328 75.9142 30.8328 76.2721C30.8328 76.6301 30.8934 76.9668 31.0117 77.2792C31.1331 77.5917 31.2999 77.8677 31.5183 78.1013C31.7367 78.3349 31.9946 78.5199 32.2979 78.6564C32.6013 78.7929 32.9319 78.8597 33.2959 78.8597Z"
              fill="#464064"/>
        <path d="M37.0137 73.1558H37.8327L39.2493 78.3278H39.2675L40.7964 73.1558H41.6245L43.1473 78.3278H43.1655L44.6064 73.1558H45.38L43.5508 79.3835H42.75L41.209 74.1052H41.1908L39.6437 79.3835H38.8338L37.0137 73.1558Z"
              fill="#464064"/>
        <path d="M46.2109 73.1558H47.1422L50.749 78.3278H50.7672V73.1558H51.5074V79.3835H50.5761L46.9693 74.2114H46.9511V79.3835H46.2109V73.1558V73.1558Z"
              fill="#464064"/>
        <path d="M3.00195 84.2773H5.65624L10.7525 96.0624H10.7949L15.9336 84.2773H18.5242V99.3112H16.7405V86.698H16.6981L11.3046 99.3112H10.2216L4.8281 86.698H4.78563V99.3112H3.00195V84.2773Z"
              fill="#464064"/>
        <path d="M33.5364 93.578C33.5364 94.4 33.4332 95.1766 33.227 95.9137C33.0207 96.6509 32.6961 97.297 32.2502 97.8582C31.8043 98.4163 31.2188 98.8623 30.4968 99.1959C29.7749 99.5296 28.8982 99.6934 27.8638 99.6934C26.8294 99.6934 25.9527 99.5266 25.2307 99.1959C24.5088 98.8653 23.9233 98.4163 23.4804 97.8582C23.0345 97.3 22.7099 96.6509 22.5036 95.9137C22.2974 95.1766 22.1973 94.4 22.1973 93.578V84.2773H23.9809V93.3231C23.9809 93.9329 24.0446 94.5183 24.1721 95.0856C24.2995 95.6528 24.5118 96.1534 24.8091 96.5932C25.1064 97.0331 25.5037 97.3819 25.9982 97.6428C26.4927 97.9037 27.1175 98.0341 27.8668 98.0341C28.6161 98.0341 29.241 97.9037 29.7354 97.6428C30.2299 97.3819 30.6273 97.03 30.9246 96.5932C31.2218 96.1534 31.4342 95.6528 31.5616 95.0856C31.689 94.5183 31.7527 93.9329 31.7527 93.3231V84.2773H33.5364V93.578V93.578Z"
              fill="#464064"/>
        <path d="M44.3429 86.9318C44.0456 86.4495 43.6482 86.1007 43.1538 85.8792C42.6593 85.6608 42.1406 85.5516 41.6037 85.5516C41.2063 85.5516 40.818 85.6001 40.4358 85.7002C40.0536 85.8003 39.7108 85.949 39.4044 86.1462C39.1011 86.3433 38.8554 86.6073 38.6734 86.9318C38.4883 87.2564 38.3973 87.6386 38.3973 88.0785C38.3973 88.4182 38.4489 88.7185 38.5551 88.9825C38.6612 89.2464 38.8341 89.4799 39.0738 89.6923C39.3134 89.9046 39.641 90.1018 40.0506 90.2868C40.4601 90.4719 40.9636 90.6539 41.5582 90.8389C42.1376 91.024 42.7018 91.2212 43.2478 91.4335C43.7939 91.6458 44.2731 91.9158 44.6918 92.2404C45.1104 92.565 45.441 92.9745 45.6898 93.4599C45.9385 93.9482 46.0629 94.561 46.0629 95.2951C46.0629 96.0292 45.9143 96.6966 45.617 97.2487C45.3197 97.8007 44.9284 98.2588 44.44 98.6167C43.9516 98.9777 43.3874 99.2477 42.7534 99.4236C42.1163 99.5996 41.4581 99.6906 40.7786 99.6906C40.3387 99.6906 39.9019 99.6512 39.4621 99.5753C39.0222 99.4965 38.6036 99.3781 38.1971 99.2143C37.7937 99.0505 37.4145 98.8382 37.0596 98.5773C36.7046 98.3164 36.4013 97.9949 36.1465 97.6127L37.6754 96.3598C37.9999 96.9119 38.455 97.3306 39.0343 97.6127C39.6137 97.8948 40.2295 98.0374 40.8817 98.0374C41.2639 98.0374 41.6492 97.9797 42.0375 97.8675C42.4258 97.7552 42.7776 97.5884 43.0871 97.367C43.3995 97.1485 43.6543 96.8755 43.8515 96.551C44.0487 96.2264 44.1488 95.8502 44.1488 95.4255C44.1488 94.9584 44.0699 94.5792 43.9152 94.288C43.7605 93.9968 43.5178 93.745 43.1932 93.5327C42.8686 93.3203 42.4561 93.1292 41.9616 92.9593C41.4672 92.7895 40.8848 92.5923 40.2204 92.3648C39.6835 92.1949 39.186 92.0008 38.734 91.7793C38.282 91.5609 37.8877 91.2909 37.554 90.9724C37.2203 90.6539 36.9595 90.2717 36.7683 89.8258C36.5772 89.3798 36.4802 88.8459 36.4802 88.2211C36.4802 87.4991 36.6227 86.8681 36.9049 86.3312C37.187 85.7943 37.5692 85.3423 38.0515 84.9813C38.5338 84.6203 39.0768 84.3473 39.6865 84.1623C40.2963 83.9772 40.9333 83.8862 41.5976 83.8862C42.447 83.8862 43.2205 84.0167 43.9243 84.2775C44.625 84.5384 45.253 84.9965 45.802 85.6487L44.3368 86.9227L44.3429 86.9318Z"
              fill="#464064"/>
        <path d="M49.0156 84.2773H50.7993V99.3112H49.0156V84.2773Z" fill="#464064"/>
        <path d="M65.0667 87.3779C64.6147 86.7682 64.0535 86.3132 63.3892 86.0068C62.7248 85.7035 62.0302 85.5518 61.3082 85.5518C60.474 85.5518 59.7035 85.7217 59.0028 86.0614C58.302 86.4012 57.6953 86.8562 57.1887 87.4295C56.6791 88.0028 56.2817 88.6672 55.9996 89.4255C55.7175 90.1839 55.5749 90.9726 55.5749 91.7916C55.5749 92.6683 55.7175 93.4873 55.9996 94.2427C56.2817 95.001 56.6761 95.6593 57.1766 96.2175C57.6802 96.7756 58.2808 97.2185 58.9815 97.5461C59.6823 97.8707 60.4558 98.0345 61.3082 98.0345C62.2273 98.0345 63.0494 97.8555 63.7714 97.4915C64.4933 97.1305 65.1243 96.6118 65.6612 95.9323L66.999 97.0577C66.3195 97.9647 65.5035 98.6291 64.5479 99.0537C63.5924 99.4784 62.5125 99.6908 61.3112 99.6908C60.2343 99.6908 59.2303 99.4936 58.296 99.0962C57.3617 98.6988 56.5517 98.1498 55.8662 97.4521C55.1806 96.7513 54.6406 95.9202 54.2524 94.9586C53.8641 93.997 53.6699 92.9413 53.6699 91.7947C53.6699 90.648 53.858 89.6561 54.2311 88.6945C54.6073 87.7328 55.1351 86.8956 55.8116 86.1888C56.4911 85.482 57.298 84.9208 58.2323 84.5113C59.1666 84.1018 60.1919 83.8955 61.3112 83.8955C62.3305 83.8955 63.3103 84.0806 64.2537 84.4476C65.1941 84.8146 65.9828 85.4183 66.6198 86.2525L65.0697 87.3779H65.0667Z"
              fill="#464064"/>
        <defs>
            <clipPath id="clip0_22_3879">
                <rect width="66.999" height="66.999" fill="#464064"/>
            </clipPath>
        </defs>
    </symbol>
</svg>
