<svg display="none" xmlns="http://www.w3.org/2000/svg">
    <symbol id="menu">
        <path d="M7,0H4A4,4,0,0,0,0,4V7a4,4,0,0,0,4,4H7a4,4,0,0,0,4-4V4A4,4,0,0,0,7,0ZM9,7A2,2,0,0,1,7,9H4A2,2,0,0,1,2,7V4A2,2,0,0,1,4,2H7A2,2,0,0,1,9,4Z"/>
        <path d="M20,0H17a4,4,0,0,0-4,4V7a4,4,0,0,0,4,4h3a4,4,0,0,0,4-4V4A4,4,0,0,0,20,0Zm2,7a2,2,0,0,1-2,2H17a2,2,0,0,1-2-2V4a2,2,0,0,1,2-2h3a2,2,0,0,1,2,2Z"/>
        <path d="M7,13H4a4,4,0,0,0-4,4v3a4,4,0,0,0,4,4H7a4,4,0,0,0,4-4V17A4,4,0,0,0,7,13Zm2,7a2,2,0,0,1-2,2H4a2,2,0,0,1-2-2V17a2,2,0,0,1,2-2H7a2,2,0,0,1,2,2Z"/>
        <path d="M20,13H17a4,4,0,0,0-4,4v3a4,4,0,0,0,4,4h3a4,4,0,0,0,4-4V17A4,4,0,0,0,20,13Zm2,7a2,2,0,0,1-2,2H17a2,2,0,0,1-2-2V17a2,2,0,0,1,2-2h3a2,2,0,0,1,2,2Z"/>
    </symbol>
    <symbol id="login">
        <path d="M19,8.424V7A7,7,0,0,0,5,7V8.424A5,5,0,0,0,2,13v6a5.006,5.006,0,0,0,5,5H17a5.006,5.006,0,0,0,5-5V13A5,5,0,0,0,19,8.424ZM7,7A5,5,0,0,1,17,7V8H7ZM20,19a3,3,0,0,1-3,3H7a3,3,0,0,1-3-3V13a3,3,0,0,1,3-3H17a3,3,0,0,1,3,3Z"/>
        <path d="M12,14a1,1,0,0,0-1,1v2a1,1,0,0,0,2,0V15A1,1,0,0,0,12,14Z"/>
    </symbol>
    <symbol id="manage">
        <path d="M9.878,18.122a3,3,0,0,0,4.244,0l3.211-3.211A1,1,0,0,0,15.919,13.5l-2.926,2.927L13,1a1,1,0,0,0-1-1h0a1,1,0,0,0-1,1l-.009,15.408L8.081,13.5a1,1,0,0,0-1.414,1.415Z"/>
        <path d="M23,16h0a1,1,0,0,0-1,1v4a1,1,0,0,1-1,1H3a1,1,0,0,1-1-1V17a1,1,0,0,0-1-1H1a1,1,0,0,0-1,1v4a3,3,0,0,0,3,3H21a3,3,0,0,0,3-3V17A1,1,0,0,0,23,16Z"/>
    </symbol>
    <symbol id="home">
        <g id="_01_align_center" data-name="01 align center">
            <path d="M13.338.833a2,2,0,0,0-2.676,0L0,10.429v10.4a3.2,3.2,0,0,0,3.2,3.2H20.8a3.2,3.2,0,0,0,3.2-3.2v-10.4ZM15,22.026H9V17a3,3,0,0,1,6,0Zm7-1.2a1.2,1.2,0,0,1-1.2,1.2H17V17A5,5,0,0,0,7,17v5.026H3.2a1.2,1.2,0,0,1-1.2-1.2V11.319l10-9,10,9Z"/>
        </g>
    </symbol>
    <symbol id="music">
        <path d="M12,0A12,12,0,1,0,24,12,12.013,12.013,0,0,0,12,0Zm0,16a4,4,0,1,1,4-4A4,4,0,0,1,12,16Zm1-4a1,1,0,1,1-1-1A1,1,0,0,1,13,12Z"/>
    </symbol>
    <symbol id="dots">
        <circle cx="12" cy="2" r="2"/>
        <circle cx="12" cy="12" r="2"/>
        <circle cx="12" cy="22" r="2"/>
    </symbol>
    <symbol id="play">
        <g id="Capa_13" data-name="Capa 13">
            <path d="M19.948,23H4.052A4.03,4.03,0,0,1,.6,21.088a3.947,3.947,0,0,1-.182-3.86L8.38,3.212a4.068,4.068,0,0,1,7.253.026l7.922,13.941a3.967,3.967,0,0,1-.156,3.909A4.03,4.03,0,0,1,19.948,23Z"/>
        </g>
    </symbol>
    <symbol id="pause">
        <path d="M6.5,0A3.5,3.5,0,0,0,3,3.5v17a3.5,3.5,0,0,0,7,0V3.5A3.5,3.5,0,0,0,6.5,0Z"/>
        <path d="M17.5,0A3.5,3.5,0,0,0,14,3.5v17a3.5,3.5,0,0,0,7,0V3.5A3.5,3.5,0,0,0,17.5,0Z"/>
    </symbol>
    <symbol id="ava">
        <g>
            <path d="M61.4,0c17,0,32.3,6.9,43.4,18c11.1,11.1,18,26.5,18,43.4c0,17-6.9,32.3-18,43.4c-11.1,11.1-26.5,18-43.4,18 s-32.3-6.9-43.4-18C6.9,93.8,0,78.4,0,61.4c0-17,6.9-32.3,18-43.4C29.1,6.9,44.5,0,61.4,0L61.4,0z M41.3,54.3c-1.1,0-2,0.3-2.5,0.7 c-0.3,0.2-0.6,0.5-0.7,0.8c-0.2,0.4-0.3,0.8-0.2,1.4c0,1.5,0.8,3.5,2.4,5.8l0,0l0,0l5,8c2,3.2,4.1,6.5,6.8,8.9 c2.5,2.3,5.6,3.9,9.6,3.9c4.4,0,7.6-1.6,10.2-4.1c2.7-2.5,4.9-6,7-9.5l5.7-9.3c1.1-2.4,1.4-4,1.2-5c-0.1-0.6-0.8-0.8-1.8-0.9 c-0.2,0-0.5,0-0.7,0c-0.3,0-0.5,0-0.8,0c-0.2,0-0.3,0-0.4,0c-0.5,0-1,0-1.6-0.1l1.9-8.6c-14.4,2.3-25.2-8.4-40.4-2.1L43,54.4 C42.4,54.4,41.8,54.4,41.3,54.3L41.3,54.3L41.3,54.3L41.3,54.3z M18.8,95.7c7.1-2.5,19.6-3.8,25.4-7.7c1-1.3,2.1-2.9,3.1-4.3 c0.6-0.9,1.1-1.7,1.6-2.3c0.1-0.1,0.2-0.2,0.3-0.3c-2.4-2.5-4.4-5.5-6.3-8.5l-5-8C36,61.8,35,59.3,35,57.3c0-1,0.1-1.9,0.5-2.6 c0.4-0.8,1-1.5,1.7-2c0.4-0.2,0.8-0.5,1.2-0.6c-0.3-4.3-0.4-9.8-0.2-14.4c0.1-1.1,0.3-2.2,0.6-3.3c1.3-4.6,4.5-8.3,8.5-10.8 c1.4-0.9,2.9-1.6,4.6-2.2c2.9-1.1,1.5-5.5,4.7-5.6c7.5-0.2,19.8,6.2,24.6,11.4c2.8,3,4.6,7,4.9,12.3l-0.3,13.1l0,0 c1.4,0.4,2.3,1.3,2.7,2.7c0.4,1.6,0,3.8-1.4,6.9l0,0c0,0.1-0.1,0.1-0.1,0.2l-5.7,9.4c-2.2,3.6-4.5,7.3-7.5,10.1L73.7,82l0,0 c0.4,0.5,0.8,1.1,1.2,1.7c0.8,1.1,1.6,2.4,2.5,3.6c5.3,4.5,19.3,5.9,26.7,8.6c7.6-9.4,12.1-21.4,12.1-34.4c0-15.1-6.1-28.8-16-38.7 c-9.9-9.9-23.6-16-38.7-16s-28.8,6.1-38.7,16c-9.9,9.9-16,23.6-16,38.7C6.7,74.4,11.2,86.3,18.8,95.7L18.8,95.7z M77,90.5 c-1.4-1.6-2.8-3.7-4.1-5.5c-0.4-0.5-0.7-1.1-1.1-1.5c-2.7,2-6,3.3-10.3,3.3c-4.5,0-8-1.6-10.9-4.1c0,0,0,0.1-0.1,0.1 c-0.5,0.7-1,1.4-1.6,2.3c-1.1,1.6-2.3,3.3-3.4,4.8C45.6,100,71.1,106,77,90.5L77,90.5z"/>
        </g>
    </symbol>
    <symbol id="remove">
        <g>
            <path d="M322.383,90.222h-2.84l0.436-11.816c0.368-10.004-3.254-19.481-10.201-26.689c-6.946-7.207-16.284-11.176-26.294-11.176
		h-48.463V22.934C235.021,10.288,224.732,0,212.087,0h-43.576c-12.646,0-22.933,10.288-22.933,22.934V40.54H97.114
		c-10.01,0-19.348,3.97-26.294,11.177c-6.947,7.207-10.569,16.686-10.2,26.688l0.436,11.816h-2.841c-8.284,0-15,6.716-15,15
		s6.716,15,15,15h3.948l8.309,225.202c0.728,19.724,16.758,35.174,36.494,35.174h166.667c19.736,0,35.766-15.45,36.494-35.174
		l8.309-225.202h3.947c8.284,0,15-6.716,15-15S330.667,90.222,322.383,90.222z M175.578,30h29.443v10.54h-29.443V30z M90.599,77.3
		c-0.089-2.41,1.103-4.02,1.821-4.765s2.283-1.995,4.694-1.995h186.37c2.411,0,3.976,1.25,4.694,1.995
		c0.718,0.745,1.909,2.355,1.82,4.765l-0.477,12.922H91.076L90.599,77.3z M280.147,344.318c-0.131,3.521-2.992,6.279-6.515,6.279
		h-15.714V226.13c0-8.284-6.716-15-15-15s-15,6.716-15,15v124.468h-22.62V226.13c0-8.284-6.716-15-15-15s-15,6.716-15,15v124.468
		h-22.621V226.13c0-8.284-6.716-15-15-15s-15,6.716-15,15v124.468h-15.713c-3.523,0-6.385-2.758-6.515-6.279l-8.268-224.097h196.232
		L280.147,344.318z"/>
        </g>
        <g>
        </g>
        <g>
        </g>
        <g>
        </g>
        <g>
        </g>
        <g>
        </g>
        <g>
        </g>
        <g>
        </g>
        <g>
        </g>
        <g>
        </g>
        <g>
        </g>
        <g>
        </g>
        <g>
        </g>
        <g>
        </g>
        <g>
        </g>
        <g>
        </g>
    </symbol>
</svg>
